<?xml version="1.0" encoding="UTF-8" standalone="no"?>
<!-- Created with Inkscape (http://www.inkscape.org/) -->

<svg
   version="1.1"
   id="svg5046"
   xml:space="preserve"
   width="682.66669"
   height="682.66669"
   viewBox="0 0 682.66669 682.66669"
   xmlns="http://www.w3.org/2000/svg"
   xmlns:svg="http://www.w3.org/2000/svg"><defs
     id="defs5050"><clipPath
       clipPathUnits="userSpaceOnUse"
       id="clipPath5060"><path
         d="M 0,512 H 512 V 0 H 0 Z"
         id="path5058" /></clipPath></defs><g
     id="g5052"
     transform="matrix(1.3333333,0,0,-1.3333333,0,682.66667)"><g
       id="g5054"><g
         id="g5056"
         clip-path="url(#clipPath5060)"><g
           id="g5062"
           transform="translate(49.0498,452.165)"><path
             d="M 0,0 V 0 C 7.157,-19.145 22.321,-34.244 41.549,-41.371 22.321,-48.498 7.157,-63.598 0,-82.743 -7.158,-63.598 -22.322,-48.498 -41.55,-41.371 -22.322,-34.244 -7.158,-19.145 0,0 Z"
             style="fill:none;stroke:#000000;stroke-width:15;stroke-linecap:round;stroke-linejoin:round;stroke-miterlimit:10;stroke-dasharray:none;stroke-opacity:1"
             id="path5064" /></g><g
           id="g5066"
           transform="translate(139.0977,495.8389)"><path
             d="M 0,0 V 0 C 4.819,-12.89 15.029,-23.057 27.975,-27.854 15.029,-32.653 4.819,-42.819 0,-55.71 -4.819,-42.819 -15.029,-32.653 -27.975,-27.854 -15.029,-23.057 -4.819,-12.89 0,0 Z"
             style="fill:none;stroke:#000000;stroke-width:15;stroke-linecap:round;stroke-linejoin:round;stroke-miterlimit:10;stroke-dasharray:none;stroke-opacity:1"
             id="path5068" /></g><g
           id="g5070"
           transform="translate(462.9502,452.165)"><path
             d="M 0,0 V 0 C -7.157,-19.145 -22.321,-34.244 -41.549,-41.371 -22.321,-48.498 -7.157,-63.598 0,-82.743 7.158,-63.598 22.322,-48.498 41.55,-41.371 22.322,-34.244 7.158,-19.145 0,0 Z"
             style="fill:none;stroke:#000000;stroke-width:15;stroke-linecap:round;stroke-linejoin:round;stroke-miterlimit:10;stroke-dasharray:none;stroke-opacity:1"
             id="path5072" /></g><g
           id="g5074"
           transform="translate(372.9023,495.8389)"><path
             d="M 0,0 V 0 C -4.819,-12.89 -15.029,-23.057 -27.975,-27.854 -15.029,-32.653 -4.819,-42.819 0,-55.71 4.819,-42.819 15.029,-32.653 27.975,-27.854 15.029,-23.057 4.819,-12.89 0,0 Z"
             style="fill:none;stroke:#000000;stroke-width:15;stroke-linecap:round;stroke-linejoin:round;stroke-miterlimit:10;stroke-dasharray:none;stroke-opacity:1"
             id="path5076" /></g><g
           id="g5078"
           transform="translate(283.9609,409.4697)"><path
             d="M 0,0 C 87.337,-8.722 155.264,-57.68 161.144,-118.081"
             style="fill:none;stroke:#000000;stroke-width:15;stroke-linecap:round;stroke-linejoin:round;stroke-miterlimit:10;stroke-dasharray:none;stroke-opacity:1"
             id="path5080" /></g><g
           id="g5082"
           transform="translate(138.9297,383.5215)"><path
             d="M 0,0 C 25.3,13.438 55.792,22.621 89.107,25.948"
             style="fill:none;stroke:#000000;stroke-width:15;stroke-linecap:round;stroke-linejoin:round;stroke-miterlimit:10;stroke-dasharray:none;stroke-opacity:1"
             id="path5084" /></g><g
           id="g5086"
           transform="translate(67.4609,295.9531)"><path
             d="M 0,0 C 3.61,24.009 17.047,46.056 37.551,64.277"
             style="fill:none;stroke:#000000;stroke-width:15;stroke-linecap:round;stroke-linejoin:round;stroke-miterlimit:10;stroke-dasharray:none;stroke-opacity:1"
             id="path5088" /></g><g
           id="g5090"
           transform="translate(442.2119,84.457)"><path
             d="m 0,0 61.567,197.845 c 3.632,11.673 -7.049,22.756 -18.832,19.539 L -70.349,186.51 -173.16,348.504 c -6.075,9.571 -20.028,9.571 -26.104,0 L -302.075,186.51 -415.159,217.384 c -11.782,3.217 -22.464,-7.866 -18.832,-19.539 L -372.424,0"
             style="fill:none;stroke:#000000;stroke-width:15;stroke-linecap:round;stroke-linejoin:round;stroke-miterlimit:10;stroke-dasharray:none;stroke-opacity:1"
             id="path5092" /></g><g
           id="g5094"
           transform="translate(305.3437,209.666)"><path
             d="m 0,0 c 0,-42.707 -22.092,-77.328 -49.344,-77.328 -27.252,0 -49.344,34.621 -49.344,77.328 0,42.708 22.092,77.329 49.344,77.329 C -22.092,77.329 0,42.708 0,0 Z"
             style="fill:none;stroke:#000000;stroke-width:15;stroke-linecap:round;stroke-linejoin:round;stroke-miterlimit:10;stroke-dasharray:none;stroke-opacity:1"
             id="path5096" /></g><g
           id="g5098"
           transform="translate(331.1602,16.0752)"><path
             d="m 0,0 h -240.743 c -11.393,0 -20.629,9.235 -20.629,20.629 V 68.382 H 111.052 V 20.629 C 111.052,9.235 101.815,0 90.423,0 h -46.37"
             style="fill:none;stroke:#000000;stroke-width:15;stroke-linecap:round;stroke-linejoin:round;stroke-miterlimit:10;stroke-dasharray:none;stroke-opacity:1"
             id="path5100" /></g><g
           id="g5102"
           transform="translate(113.5439,42.7666)"><path
             d="M 0,0 C 9.651,0 9.667,15 0,15 -9.652,15 -9.668,0 0,0"
             style="fill:#000000;fill-opacity:1;fill-rule:nonzero;stroke:none"
             id="path5104" /></g><g
           id="g5106"
           transform="translate(161.0293,42.7666)"><path
             d="M 0,0 C 9.651,0 9.667,15 0,15 -9.652,15 -9.668,0 0,0"
             style="fill:#000000;fill-opacity:1;fill-rule:nonzero;stroke:none"
             id="path5108" /></g><g
           id="g5110"
           transform="translate(208.5146,42.7666)"><path
             d="M 0,0 C 9.651,0 9.668,15 0,15 -9.652,15 -9.668,0 0,0"
             style="fill:#000000;fill-opacity:1;fill-rule:nonzero;stroke:none"
             id="path5112" /></g><g
           id="g5114"
           transform="translate(256,42.7666)"><path
             d="M 0,0 C 9.651,0 9.668,15 0,15 -9.651,15 -9.668,0 0,0"
             style="fill:#000000;fill-opacity:1;fill-rule:nonzero;stroke:none"
             id="path5116" /></g><g
           id="g5118"
           transform="translate(303.4854,42.7666)"><path
             d="M 0,0 C 9.652,0 9.668,15 0,15 -9.651,15 -9.668,0 0,0"
             style="fill:#000000;fill-opacity:1;fill-rule:nonzero;stroke:none"
             id="path5120" /></g><g
           id="g5122"
           transform="translate(350.9707,42.7666)"><path
             d="M 0,0 C 9.652,0 9.668,15 0,15 -9.651,15 -9.667,0 0,0"
             style="fill:#000000;fill-opacity:1;fill-rule:nonzero;stroke:none"
             id="path5124" /></g><g
           id="g5126"
           transform="translate(398.4561,42.7666)"><path
             d="M 0,0 C 9.652,0 9.668,15 0,15 -9.651,15 -9.667,0 0,0"
             style="fill:#000000;fill-opacity:1;fill-rule:nonzero;stroke:none"
             id="path5128" /></g></g></g></g></svg>
